<svg width="79" height="25" viewBox="0 0 79 25" fill="none" xmlns="http://www.w3.org/2000/svg">
<path d="M19 11.5269H3.94982L9.41126 6.37602L7.95226 5L0 12.5L7.95226 20L9.41126 18.624L3.94982 13.4731H19V11.5269Z" fill="white"/>
<path d="M47.628 15.706C47.628 16.426 47.442 17.032 47.07 17.524C46.698 18.004 46.194 18.37 45.558 18.622C44.934 18.874 44.25 19 43.506 19H37.332V6.22H44.172C44.772 6.22 45.288 6.382 45.72 6.706C46.164 7.018 46.5 7.426 46.728 7.93C46.968 8.422 47.088 8.938 47.088 9.478C47.088 10.09 46.932 10.672 46.62 11.224C46.308 11.776 45.852 12.184 45.252 12.448C45.984 12.664 46.56 13.054 46.98 13.618C47.412 14.182 47.628 14.878 47.628 15.706ZM45.126 15.238C45.126 14.914 45.06 14.626 44.928 14.374C44.796 14.11 44.616 13.906 44.388 13.762C44.172 13.606 43.92 13.528 43.632 13.528H39.816V16.894H43.506C43.806 16.894 44.076 16.822 44.316 16.678C44.568 16.522 44.766 16.318 44.91 16.066C45.054 15.814 45.126 15.538 45.126 15.238ZM39.816 8.344V11.566H43.128C43.404 11.566 43.656 11.5 43.884 11.368C44.112 11.236 44.292 11.05 44.424 10.81C44.568 10.57 44.64 10.282 44.64 9.946C44.64 9.622 44.574 9.34 44.442 9.1C44.322 8.86 44.154 8.674 43.938 8.542C43.734 8.41 43.5 8.344 43.236 8.344H39.816ZM48.6844 16.21C48.6844 15.598 48.8524 15.064 49.1884 14.608C49.5364 14.14 50.0164 13.78 50.6284 13.528C51.2404 13.276 51.9424 13.15 52.7344 13.15C53.1304 13.15 53.5324 13.18 53.9404 13.24C54.3484 13.3 54.7024 13.396 55.0024 13.528V13.024C55.0024 12.424 54.8224 11.962 54.4624 11.638C54.1144 11.314 53.5924 11.152 52.8964 11.152C52.3804 11.152 51.8884 11.242 51.4204 11.422C50.9524 11.602 50.4604 11.866 49.9444 12.214L49.1704 10.63C49.7944 10.222 50.4304 9.916 51.0784 9.712C51.7384 9.508 52.4284 9.406 53.1484 9.406C54.4924 9.406 55.5364 9.742 56.2804 10.414C57.0364 11.086 57.4144 12.046 57.4144 13.294V16.3C57.4144 16.552 57.4564 16.732 57.5404 16.84C57.6364 16.948 57.7864 17.014 57.9904 17.038V19C57.7744 19.036 57.5764 19.066 57.3964 19.09C57.2284 19.114 57.0844 19.126 56.9644 19.126C56.4844 19.126 56.1184 19.018 55.8664 18.802C55.6264 18.586 55.4764 18.322 55.4164 18.01L55.3624 17.524C54.9544 18.052 54.4444 18.46 53.8324 18.748C53.2204 19.036 52.5964 19.18 51.9604 19.18C51.3364 19.18 50.7724 19.054 50.2684 18.802C49.7764 18.538 49.3864 18.184 49.0984 17.74C48.8224 17.284 48.6844 16.774 48.6844 16.21ZM54.5524 16.696C54.6844 16.552 54.7924 16.408 54.8764 16.264C54.9604 16.12 55.0024 15.988 55.0024 15.868V14.914C54.7144 14.794 54.4024 14.704 54.0664 14.644C53.7304 14.572 53.4124 14.536 53.1124 14.536C52.4884 14.536 51.9724 14.674 51.5644 14.95C51.1684 15.214 50.9704 15.568 50.9704 16.012C50.9704 16.252 51.0364 16.48 51.1684 16.696C51.3004 16.912 51.4924 17.086 51.7444 17.218C51.9964 17.35 52.2964 17.416 52.6444 17.416C53.0044 17.416 53.3584 17.35 53.7064 17.218C54.0544 17.074 54.3364 16.9 54.5524 16.696ZM64.0603 19.18C63.2923 19.18 62.6023 19.054 61.9903 18.802C61.3783 18.538 60.8563 18.178 60.4243 17.722C59.9923 17.254 59.6563 16.726 59.4163 16.138C59.1883 15.55 59.0743 14.932 59.0743 14.284C59.0743 13.396 59.2723 12.586 59.6683 11.854C60.0763 11.11 60.6523 10.516 61.3963 10.072C62.1403 9.628 63.0223 9.406 64.0423 9.406C65.0623 9.406 65.9383 9.628 66.6703 10.072C67.4023 10.516 67.9483 11.098 68.3083 11.818L65.9503 12.538C65.7463 12.19 65.4763 11.926 65.1403 11.746C64.8043 11.554 64.4323 11.458 64.0243 11.458C63.5683 11.458 63.1483 11.578 62.7643 11.818C62.3923 12.046 62.0983 12.376 61.8823 12.808C61.6663 13.228 61.5583 13.72 61.5583 14.284C61.5583 14.836 61.6663 15.328 61.8823 15.76C62.1103 16.18 62.4103 16.516 62.7823 16.768C63.1543 17.008 63.5683 17.128 64.0243 17.128C64.3123 17.128 64.5823 17.08 64.8343 16.984C65.0983 16.888 65.3323 16.756 65.5363 16.588C65.7403 16.42 65.8903 16.228 65.9863 16.012L68.3443 16.732C68.1283 17.2 67.8103 17.62 67.3903 17.992C66.9823 18.364 66.4963 18.658 65.9323 18.874C65.3803 19.078 64.7563 19.18 64.0603 19.18ZM76.2725 19L73.5185 14.932L72.2405 16.192V19H69.8285V5.86H72.2405V13.816L76.0385 9.586H78.5945L75.0845 13.582L78.8465 19H76.2725Z" fill="white"/>
</svg>
